<svg class="svg-icon" style="width: 1em;height: 1em;vertical-align: middle;fill: currentColor;overflow: hidden;" viewBox="0 0 1024 1024" version="1.1" xmlns="http://www.w3.org/2000/svg"><path d="M512 800c-76.93 0-149.25-29.96-203.65-84.35C253.96 661.25 224 588.93 224 512s29.96-149.25 84.35-203.65S435.07 224 512 224s149.25 29.96 203.65 84.35C770.04 362.75 800 435.07 800 512s-29.96 149.25-84.35 203.65C661.25 770.04 588.93 800 512 800z m0-512c-59.83 0-116.08 23.3-158.39 65.61C311.3 395.92 288 452.17 288 512c0 59.83 23.3 116.08 65.61 158.39C395.92 712.7 452.17 736 512 736c59.83 0 116.08-23.3 158.39-65.61C712.7 628.08 736 571.83 736 512c0-59.83-23.3-116.08-65.61-158.39C628.08 311.3 571.83 288 512 288z"  /></svg>